<svg width="21" height="20" viewBox="0 0 21 20" fill="none" xmlns="http://www.w3.org/2000/svg">
<path d="M8.77417 0L10.4408 3.33333L12.1075 0H8.77417ZM14.7408 0.333333L14.5075 4.06667L17.6075 2L14.7408 0.333333ZM3.27417 2L6.4075 4.06667L6.17417 0.333333L3.27417 2Z" fill="#4AA9FF"/>
<path d="M6.5742 20H2.64087V15.7L7.24087 16.7666C6.14087 17.9333 6.5742 20 6.5742 20Z" fill="#EBA352"/>
<path d="M6.20754 20H1.80754C1.80754 20 1.8742 17.8667 1.14087 16.0333L6.64087 16.8333C6.00754 18.4667 6.20754 20 6.20754 20ZM5.7742 14.1333H7.44087V6.73333C7.44087 6.23333 7.0742 5.83333 6.60754 5.83333C6.14087 5.83333 5.7742 6.23333 5.7742 6.76667V14.1333ZM3.80754 14.1333H5.7742V6.1C5.7742 5.5 5.34087 5 4.7742 5C4.24087 5 3.7742 5.5 3.7742 6.1V14.1333H3.80754Z" fill="#FFDD67"/>
<path d="M2.10768 14.1333H3.84102V6.56664C3.84102 6.03331 3.44102 5.59998 2.97435 5.59998C2.50768 5.59998 2.10768 6.03331 2.10768 6.56664V14.1333ZM1.30768 6.73331C0.874349 6.73331 0.541016 7.13331 0.541016 7.63331V14.1333H2.10768V7.63331C2.10768 7.13331 1.74102 6.73331 1.30768 6.73331Z" fill="#FFDD67"/>
<path d="M6.60765 5.8H6.44098C6.84098 5.86667 7.14098 6.26667 7.14098 6.7V14.1333H7.44098V6.73333C7.44098 6.23333 7.07432 5.8 6.60765 5.8ZM4.80765 5C4.74098 5 4.70765 5 4.67432 5.03333C5.14098 5.1 5.50765 5.56667 5.50765 6.1V11.4667L5.80765 11.8V6.1C5.77432 5.5 5.34098 5 4.80765 5ZM2.97432 5.6H2.84098C3.24098 5.66667 3.54098 6.06667 3.54098 6.53333V11.4333L3.84098 11.7667V6.56667C3.80765 6.03333 3.44098 5.6 2.97432 5.6ZM1.30765 6.73333C1.24098 6.73333 1.20765 6.73333 1.17432 6.76667C1.54098 6.83333 1.80765 7.2 1.80765 7.63333V11.4667L2.10765 11.8V7.63333C2.10765 7.13333 1.74098 6.73333 1.30765 6.73333Z" fill="#EBA352"/>
<path d="M10.2409 10.7334C9.74086 10.1667 8.74086 10.4334 8.04086 11.9001C7.54086 12.9001 7.40753 12.7001 7.14086 12.7667V11.8667C7.14086 11.8667 0.507524 11.4334 0.507524 12.4334C0.507524 12.4334 0.207524 14.9001 0.840858 16.4334C1.80752 18.7334 6.74086 19.3334 8.27419 15.4334C8.57419 14.6667 9.00753 13.8334 9.34086 13.0001C9.77419 12.0001 10.8075 11.4001 10.2409 10.7334Z" fill="#FFDD67"/>
<path d="M9.90752 10.5C10.9742 11.3 9.00752 12.8333 8.07419 15.2C6.74085 18.6 2.84085 18.6 1.20752 17.0333C2.70752 18.8 6.87419 19.1333 8.27419 15.4333C9.20752 13.0333 11.4742 11.2 9.90752 10.5Z" fill="#EBA352"/>
<path d="M7.44068 12.7333C6.14068 12.2666 3.40734 13.1666 3.77401 15.7666C3.77401 13.3333 5.94068 12.7666 7.14068 12.7666C7.30734 12.7666 7.44068 12.7333 7.44068 12.7333ZM14.3073 19.9999H18.2407V15.6999L13.6407 16.7666C14.7407 17.9333 14.3073 19.9999 14.3073 19.9999Z" fill="#EBA352"/>
<path d="M14.6743 20H19.0743C19.0743 20 19.0076 17.8667 19.7409 16.0333L14.2409 16.8333C14.8743 18.4667 14.6743 20 14.6743 20ZM15.1076 14.1333H13.4409V6.73333C13.4409 6.23333 13.8076 5.83333 14.2743 5.83333C14.7409 5.83333 15.1076 6.23333 15.1076 6.76667V14.1333ZM17.0743 14.1333H15.1076V6.1C15.1076 5.5 15.5409 5 16.1076 5C16.6409 5 17.1076 5.5 17.1076 6.1V14.1333H17.0743Z" fill="#FFDD67"/>
<path d="M18.7741 14.1333H17.0408V6.56664C17.0408 6.03331 17.4408 5.59998 17.9074 5.59998C18.3741 5.59998 18.7741 6.03331 18.7741 6.56664V14.1333ZM19.5741 6.73331C20.0074 6.73331 20.3408 7.13331 20.3408 7.63331V14.1333H18.7741V7.63331C18.7741 7.13331 19.1408 6.73331 19.5741 6.73331Z" fill="#FFDD67"/>
<path d="M14.2743 5.8H14.4409C14.0409 5.86667 13.7409 6.26667 13.7409 6.7V14.1333H13.4409V6.73333C13.4409 6.23333 13.8076 5.8 14.2743 5.8ZM16.0743 5C16.1409 5 16.1743 5 16.2076 5.03333C15.7409 5.1 15.3743 5.56667 15.3743 6.1V11.4667L15.0743 11.8V6.1C15.1076 5.5 15.5409 5 16.0743 5ZM17.9076 5.6H18.0409C17.6409 5.66667 17.3409 6.06667 17.3409 6.53333V11.4333L17.0409 11.7667V6.56667C17.0743 6.03333 17.4409 5.6 17.9076 5.6ZM19.5743 6.73333C19.6409 6.73333 19.6743 6.73333 19.7076 6.76667C19.3409 6.83333 19.0743 7.2 19.0743 7.63333V11.4667L18.7743 11.8V7.63333C18.7743 7.13333 19.1409 6.73333 19.5743 6.73333Z" fill="#EBA352"/>
<path d="M10.6408 10.7334C11.1408 10.1667 12.1408 10.4334 12.8408 11.9001C13.3408 12.9001 13.4742 12.7001 13.7408 12.7667V11.8667C13.7408 11.8667 20.3742 11.4334 20.3742 12.4334C20.3742 12.4334 20.6742 14.9001 20.0408 16.4334C19.0742 18.7334 14.1408 19.3334 12.6075 15.4334C12.3075 14.6667 11.8742 13.8334 11.5408 13.0001C11.1075 12.0001 10.0742 11.4001 10.6408 10.7334Z" fill="#FFDD67"/>
<path d="M10.9742 10.5C9.90754 11.3 11.8742 12.8333 12.8075 15.2C14.1409 18.6 18.0409 18.6 19.6742 17.0333C18.1742 18.8 14.0075 19.1333 12.6075 15.4333C11.6742 13.0333 9.40754 11.2 10.9742 10.5Z" fill="#EBA352"/>
<path d="M13.4409 12.7333C14.7409 12.2666 17.4743 13.1666 17.1076 15.7666C17.1076 13.3333 14.9409 12.7666 13.7409 12.7666C13.5743 12.7666 13.4409 12.7333 13.4409 12.7333Z" fill="#EBA352"/>
</svg>
