<svg width="30" height="30" viewBox="0 0 30 30" fill="none" xmlns="http://www.w3.org/2000/svg">
<rect width="30" height="30" rx="15" fill="#ECEEFE"/>
<mask id="mask0_1814_16208" style="mask-type:alpha" maskUnits="userSpaceOnUse" x="3" y="3" width="24" height="24">
<rect x="3" y="3" width="24" height="24" fill="#D9D9D9"/>
</mask>
<g mask="url(#mask0_1814_16208)">
<path d="M13.6 16.4L11.625 14.425C11.375 14.175 11.0666 14.05 10.7 14.05C10.3333 14.05 10.025 14.175 9.77495 14.425C9.52495 14.675 9.39995 14.9833 9.39995 15.35C9.39995 15.7167 9.52495 16.025 9.77495 16.275L12.675 19.175C12.9386 19.4417 13.2462 19.575 13.5977 19.575C13.9492 19.575 14.2583 19.4417 14.525 19.175L20.275 13.425C20.525 13.175 20.65 12.8667 20.65 12.5C20.65 12.1333 20.525 11.825 20.275 11.575C20.025 11.325 19.7166 11.2 19.35 11.2C18.9833 11.2 18.675 11.325 18.425 11.575L13.6 16.4ZM15 25.8C13.506 25.8 12.102 25.5165 10.788 24.9495C9.47395 24.3825 8.33095 23.613 7.35895 22.641C6.38695 21.669 5.61745 20.526 5.05045 19.212C4.48345 17.898 4.19995 16.494 4.19995 15C4.19995 13.5017 4.48394 12.0937 5.05193 10.776C5.61991 9.45822 6.39074 8.31195 7.36443 7.33719C8.33811 6.3624 9.4811 5.59585 10.7934 5.03751C12.1057 4.47918 13.5079 4.20001 15 4.20001C16.4981 4.20001 17.9059 4.47918 19.2235 5.03751C20.5411 5.59585 21.6875 6.36251 22.6625 7.33751C23.6375 8.31251 24.4041 9.45904 24.9625 10.7771C25.5208 12.0952 25.8 13.5035 25.8 15.0021C25.8 16.5007 25.5208 17.9042 24.9625 19.2125C24.4041 20.5208 23.6376 21.6619 22.6628 22.6355C21.688 23.6092 20.5417 24.3801 19.224 24.948C17.9062 25.516 16.4982 25.8 15 25.8ZM15 23.15C17.2752 23.15 19.2023 22.3605 20.7814 20.7814C22.3604 19.2024 23.15 17.2752 23.15 15C23.15 12.7248 22.3604 10.7977 20.7814 9.21861C19.2023 7.63955 17.2752 6.85001 15 6.85001C12.7247 6.85001 10.7976 7.63955 9.21855 9.21861C7.63948 10.7977 6.84995 12.7248 6.84995 15C6.84995 17.2752 7.63948 19.2024 9.21855 20.7814C10.7976 22.3605 12.7247 23.15 15 23.15Z" fill="#535AF1"/>
</g>
</svg>
